SplineFontDB: 3.2
FontName: Plan9
FullName: Plan9
FamilyName: Plan9
Weight: Book
Copyright: 
Version: 1.0
ItalicAngle: 0
UnderlinePosition: -26
UnderlineWidth: 8
Ascent: 123
Descent: 26
InvalidEm: 0
sfntRevision: 0x00010000
LayerCount: 2
Layer: 0 1 "Back" 1
Layer: 1 1 "Fore" 0
XUID: [1021 553 -1873772987 17417]
StyleMap: 0x0000
FSType: 0
OS2Version: 1
OS2_WeightWidthSlopeOnly: 0
OS2_UseTypoMetrics: 0
CreationTime: 1571663667
ModificationTime: 1603186274
PfmFamily: 17
TTFWeight: 400
TTFWidth: 5
LineGap: 16
VLineGap: 0
Panose: 2 0 5 3 0 0 0 0 0 0
OS2TypoAscent: 140
OS2TypoAOffset: 0
OS2TypoDescent: -35
OS2TypoDOffset: 0
OS2TypoLinegap: 16
OS2WinAscent: 0
OS2WinAOffset: 0
OS2WinDescent: 0
OS2WinDOffset: 0
HheadAscent: 125
HheadAOffset: 0
HheadDescent: -16
HheadDOffset: 0
OS2SubXSize: 114
OS2SubYSize: 123
OS2SubXOff: 0
OS2SubYOff: 25
OS2SupXSize: 114
OS2SupYSize: 123
OS2SupXOff: 0
OS2SupYOff: 85
OS2StrikeYSize: 9
OS2StrikeYPos: 46
OS2Vendor: 'PfEd'
OS2CodePages: 00000001.00000000
OS2UnicodeRanges: 00000001.00000000.00000000.00000000
MarkAttachClasses: 1
DEI: 91125
ShortTable: maxp 16
  1
  0
  78
  48
  4
  0
  0
  2
  0
  1
  1
  0
  64
  0
  0
  0
EndShort
LangName: 1033 "" "" "Regular" "FontForge 2.0 : Plan9 : 21-10-2019" "" "Version 1.0"
GaspTable: 1 65535 2 0
Encoding: UnicodeBmp
UnicodeInterp: none
NameList: AGL For New Fonts
DisplaySize: -48
AntiAlias: 1
FitToEm: 0
WinInfo: 0 77 24
BeginPrivate: 0
EndPrivate
BeginChars: 65539 83

StartChar: exclam
Encoding: 33 33 8
Width: 34
VWidth: 139
GlyphClass: 2
Flags: W
LayerCount: 2
Fore
SplineSet
5 125 m 1,0,-1
 5 31 l 1,1,-1
 28 31 l 1,2,-1
 28 125 l 1,3,-1
 5 125 l 1,0,-1
17.5 -4 m 128,-1,5
 12 -4 12 -4 7.5 -0.5 c 128,-1,6
 3 3 3 3 3 9 c 128,-1,7
 3 15 3 15 7.5 19 c 128,-1,8
 12 23 12 23 17.5 23 c 128,-1,9
 23 23 23 23 26.5 19 c 128,-1,10
 30 15 30 15 30 9 c 128,-1,11
 30 3 30 3 26.5 -0.5 c 128,-1,4
 23 -4 23 -4 17.5 -4 c 128,-1,5
EndSplineSet
EndChar

StartChar: comma
Encoding: 44 44 9
Width: 77
VWidth: 139
GlyphClass: 2
Flags: W
LayerCount: 2
Fore
SplineSet
54 23 m 2,0,1
 47 -14 l 0,2,3
 46 -16 46 -16 45 -16 c 2,4,-1
 26 -16 l 2,5,6
 23 -16 23 -16 24 -14 c 2,7,-1
 31 23 l 2,8,9
 32 25 32 25 34 25 c 2,10,-1
 52 25 l 2,11,12
 55 25 55 25 54 23 c 2,0,1
EndSplineSet
EndChar

StartChar: hyphen
Encoding: 45 45 10
Width: 77
VWidth: 139
GlyphClass: 2
Flags: W
LayerCount: 2
Fore
SplineSet
14 73 m 1,0,-1
 64 73 l 1,1,-1
 64 53 l 1,2,-1
 14 53 l 1,3,-1
 14 73 l 1,0,-1
EndSplineSet
EndChar

StartChar: period
Encoding: 46 46 11
Width: 77
VWidth: 139
GlyphClass: 2
Flags: W
LayerCount: 2
Fore
SplineSet
50 23 m 6,0,1
 50 2 l 4,2,3
 50 0 50 0 48 0 c 6,4,-1
 29 0 l 6,5,6
 27 0 27 0 27 2 c 6,7,-1
 27 23 l 6,8,9
 27 25 27 25 29 25 c 6,10,-1
 48 25 l 6,11,12
 50 25 50 25 50 23 c 6,0,1
EndSplineSet
EndChar

StartChar: slash
Encoding: 47 47 12
Width: 77
VWidth: 139
GlyphClass: 2
Flags: W
LayerCount: 2
Fore
SplineSet
48 123 m 5,0,-1
 9 0 l 1,1,-1
 31 0 l 1,2,-1
 71 123 l 5,3,-1
 48 123 l 5,0,-1
EndSplineSet
EndChar

StartChar: zero
Encoding: 48 48 13
Width: 77
VWidth: 139
GlyphClass: 2
Flags: W
LayerCount: 2
Fore
SplineSet
36 73 m 5,0,-1
 41 73 l 5,1,-1
 41 53 l 5,2,-1
 36 53 l 5,3,-1
 36 73 l 5,0,-1
47 98 m 6,4,-1
 47 25 l 6,5,6
 47 23 47 23 41 23 c 6,7,-1
 36 23 l 6,8,9
 31 23 31 23 29 25 c 6,10,-1
 29 98 l 6,11,12
 29 100 29 100 36 100 c 6,13,-1
 41 100 l 6,14,15
 47 100 47 100 47 98 c 6,4,-1
7 112 m 6,16,-1
 7 11 l 6,17,18
 7 7 7 7 10 3.5 c 132,-1,19
 13 0 13 0 18 0 c 6,20,-1
 58 0 l 6,21,22
 62 0 62 0 66 3.5 c 132,-1,23
 70 7 70 7 70 11 c 6,24,-1
 70 112 l 6,25,26
 70 116 70 116 66.5 119.5 c 132,-1,27
 63 123 63 123 58 123 c 6,28,-1
 18 123 l 6,29,30
 14 123 14 123 10.5 119.5 c 132,-1,31
 7 116 7 116 7 112 c 6,16,-1
EndSplineSet
EndChar

StartChar: one
Encoding: 49 49 14
Width: 77
VWidth: 139
GlyphClass: 2
Flags: W
LayerCount: 2
Fore
SplineSet
4 100 m 1,0,-1
 4 123 l 1,1,-1
 46 123 l 2,2,3
 50 123 50 123 53 119.5 c 128,-1,4
 56 116 56 116 56 112 c 2,5,-1
 56 0 l 1,6,-1
 34 0 l 1,7,-1
 34 98 l 2,8,9
 34 100 34 100 31 100 c 2,10,-1
 4 100 l 1,0,-1
EndSplineSet
EndChar

StartChar: two
Encoding: 50 50 15
Width: 77
VWidth: 139
GlyphClass: 2
Flags: W
LayerCount: 2
Fore
SplineSet
64 0 m 1,0,-1
 64 23 l 1,1,-1
 31 23 l 2,2,3
 29 23 29 23 29 25 c 2,4,-1
 29 46 l 2,5,6
 29 48 29 48 31 48 c 2,7,-1
 56 48 l 2,8,9
 60 48 60 48 63.5 51 c 128,-1,10
 67 54 67 54 67 59 c 2,11,-1
 67 112 l 2,12,13
 67 116 67 116 64 119.5 c 128,-1,14
 61 123 61 123 56 123 c 2,15,-1
 7 123 l 1,16,-1
 7 100 l 1,17,-1
 42 100 l 2,18,19
 44 100 44 100 45 98 c 2,20,-1
 45 73 l 2,21,22
 45 71 45 71 42 71 c 2,23,-1
 18 71 l 2,24,25
 14 71 14 71 10.5 67 c 128,-1,26
 7 63 7 63 7 59 c 2,27,-1
 7 11 l 2,28,29
 7 7 7 7 10 3.5 c 128,-1,30
 13 0 13 0 18 0 c 2,31,-1
 64 0 l 1,0,-1
EndSplineSet
EndChar

StartChar: three
Encoding: 51 51 16
Width: 77
VWidth: 139
GlyphClass: 2
Flags: W
LayerCount: 2
Fore
SplineSet
48 48 m 2,0,-1
 15 48 l 1,1,-1
 15 72 l 1,2,-1
 41 72 l 2,3,4
 43 72 43 72 43 74 c 2,5,-1
 43 98 l 2,6,7
 43 100 43 100 41 100 c 2,8,-1
 15 100 l 1,9,-1
 15 123 l 1,10,11
 35 123 35 123 54 123 c 0,12,13
 58 123 58 123 62 119.5 c 128,-1,14
 66 116 66 116 66 112 c 2,15,-1
 66 71 l 2,16,17
 68 70 68 70 70.5 67 c 128,-1,18
 73 64 73 64 73 60 c 2,19,-1
 73 11 l 2,20,21
 73 7 73 7 69.5 3.5 c 128,-1,22
 66 0 66 0 61 0 c 2,23,-1
 15 0 l 1,24,-1
 15 23 l 1,25,-1
 48 23 l 2,26,27
 50 23 50 23 50 25 c 2,28,-1
 50 46 l 2,29,30
 50 48 50 48 48 48 c 2,0,-1
66 71 m 1024,31,-1
EndSplineSet
EndChar

StartChar: four
Encoding: 52 52 17
Width: 83
VWidth: 139
GlyphClass: 2
Flags: W
LayerCount: 2
Fore
SplineSet
51 123 m 1,0,-1
 74 123 l 1,1,-1
 74 0 l 1,2,-1
 51 0 l 1,3,-1
 51 49 l 1,4,-1
 27 49 l 1,5,-1
 18 49 l 2,6,7
 6 49 6 49 7 63 c 2,8,-1
 7 123 l 1,9,-1
 28 123 l 1,10,-1
 28 71 l 2,11,12
 28 69 28 69 30 68 c 2,13,-1
 48 68 l 2,14,15
 50 68 50 68 51 71 c 2,16,-1
 51 123 l 1,0,-1
EndSplineSet
EndChar

StartChar: five
Encoding: 53 53 18
Width: 77
VWidth: 139
GlyphClass: 2
Flags: W
LayerCount: 2
Fore
SplineSet
10 0 m 1,0,-1
 10 23 l 1,1,-1
 42 23 l 2,2,3
 44 23 44 23 45 25 c 2,4,-1
 45 46 l 2,5,6
 45 48 45 48 42 48 c 2,7,-1
 18 48 l 2,8,9
 14 48 14 48 10.5 51 c 128,-1,10
 7 54 7 54 7 59 c 2,11,-1
 7 112 l 2,12,13
 7 116 7 116 10 119.5 c 128,-1,14
 13 123 13 123 18 123 c 2,15,-1
 67 123 l 1,16,-1
 67 100 l 1,17,-1
 31 100 l 2,18,19
 29 100 29 100 29 98 c 2,20,-1
 29 73 l 2,21,22
 29 71 29 71 31 71 c 2,23,-1
 56 71 l 2,24,25
 60 71 60 71 63.5 67 c 128,-1,26
 67 63 67 63 67 59 c 2,27,-1
 67 11 l 2,28,29
 67 7 67 7 64 3.5 c 128,-1,30
 61 0 61 0 56 0 c 2,31,-1
 10 0 l 1,0,-1
EndSplineSet
EndChar

StartChar: six
Encoding: 54 54 19
Width: 77
VWidth: 139
GlyphClass: 2
Flags: W
LayerCount: 2
Fore
SplineSet
45 23 m 2,0,-1
 30 23 l 2,1,2
 28 23 28 23 27 25 c 2,3,-1
 27 50 l 2,4,5
 27 52 27 52 30 52 c 2,6,-1
 45 52 l 2,7,8
 47 52 47 52 47 50 c 2,9,-1
 47 25 l 2,10,11
 47 23 47 23 45 23 c 2,0,-1
70 12 m 2,12,-1
 70 63 l 2,13,14
 70 67 70 67 66.5 71 c 128,-1,15
 63 75 63 75 59 75 c 2,16,-1
 30 75 l 2,17,18
 28 75 28 75 27 73 c 1,19,-1
 27 98 l 2,20,21
 27 100 27 100 30 100 c 2,22,-1
 63 100 l 1,23,-1
 63 123 l 1,24,-1
 16 123 l 2,25,26
 12 123 12 123 8 119.5 c 128,-1,27
 4 116 4 116 4 112 c 2,28,-1
 4 12 l 2,29,30
 4 8 4 8 7.5 4 c 128,-1,31
 11 0 11 0 16 0 c 2,32,-1
 59 0 l 2,33,34
 63 0 63 0 66.5 4 c 128,-1,35
 70 8 70 8 70 12 c 2,12,-1
EndSplineSet
EndChar

StartChar: seven
Encoding: 55 55 20
Width: 77
VWidth: 139
GlyphClass: 2
Flags: W
LayerCount: 2
Fore
SplineSet
38 67 m 1,0,-1
 21 67 l 1,1,-1
 21 49 l 1,2,-1
 34 49 l 1,3,-1
 23 0 l 1,4,-1
 46 0 l 1,5,-1
 70 112 l 2,6,7
 71 116 71 116 66 119 c 0,8,9
 63 122 63 122 59 123 c 2,10,-1
 4 123 l 1,11,-1
 4 100 l 1,12,-1
 41 100 l 2,13,14
 44 100 44 100 45 98 c 2,15,-1
 38 67 l 1,0,-1
EndSplineSet
EndChar

StartChar: eight
Encoding: 56 56 21
Width: 77
VWidth: 139
GlyphClass: 2
Flags: W
LayerCount: 2
Fore
SplineSet
15 72 m 1,0,-1
 15 111 l 2,1,2
 15 115 15 115 18.5 119 c 128,-1,3
 22 123 22 123 27 123 c 2,4,-1
 50 123 l 2,5,6
 54 123 54 123 57.5 119.5 c 128,-1,7
 61 116 61 116 61 111 c 2,8,-1
 61 72 l 1,9,10
 65 72 65 72 69 68 c 128,-1,11
 73 64 73 64 73 60 c 2,12,-1
 73 11 l 2,13,14
 73 7 73 7 69.5 3.5 c 128,-1,15
 66 0 66 0 61 0 c 2,16,-1
 15 0 l 2,17,18
 11 0 11 0 7.5 3.5 c 128,-1,19
 4 7 4 7 4 11 c 2,20,-1
 4 60 l 2,21,22
 4 64 4 64 7.5 68 c 128,-1,23
 11 72 11 72 15 72 c 1,0,-1
41 100 m 2,24,25
 41 102 41 102 39 102 c 2,26,-1
 38 102 l 2,27,28
 36 102 36 102 36 100 c 2,29,-1
 36 74 l 2,30,31
 36 72 36 72 38 72 c 2,32,-1
 39 72 l 2,33,34
 41 72 41 72 41 74 c 2,35,-1
 41 100 l 2,24,25
50 46 m 2,36,37
 50 48 50 48 48 48 c 2,38,-1
 29 48 l 2,39,40
 27 48 27 48 27 46 c 2,41,-1
 27 25 l 2,42,43
 27 23 27 23 29 23 c 2,44,-1
 48 23 l 2,45,46
 50 23 50 23 50 25 c 2,47,-1
 50 46 l 2,36,37
EndSplineSet
EndChar

StartChar: nine
Encoding: 57 57 22
Width: 77
VWidth: 139
GlyphClass: 2
Flags: W
LayerCount: 2
Fore
SplineSet
30 100 m 2,0,-1
 45 100 l 2,1,2
 47 100 47 100 47 98 c 2,3,-1
 47 74 l 2,4,5
 47 72 47 72 45 72 c 2,6,-1
 30 72 l 2,7,8
 28 72 28 72 27 74 c 2,9,-1
 27 98 l 2,10,11
 28 100 28 100 30 100 c 2,0,-1
4 112 m 2,12,-1
 4 60 l 2,13,14
 4 56 4 56 7.5 52.5 c 128,-1,15
 11 49 11 49 16 49 c 2,16,-1
 45 49 l 2,17,18
 47 49 47 49 47 51 c 1,19,-1
 47 25 l 2,20,21
 47 23 47 23 45 23 c 2,22,-1
 11 23 l 1,23,-1
 11 0 l 1,24,-1
 59 0 l 2,25,26
 63 0 63 0 66.5 3.5 c 128,-1,27
 70 7 70 7 70 12 c 2,28,-1
 70 112 l 2,29,30
 70 116 70 116 66.5 119.5 c 128,-1,31
 63 123 63 123 59 123 c 2,32,-1
 16 123 l 2,33,34
 12 123 12 123 8 119.5 c 128,-1,35
 4 116 4 116 4 112 c 2,12,-1
EndSplineSet
EndChar

StartChar: A
Encoding: 65 65 23
Width: 79
VWidth: 139
GlyphClass: 2
Flags: W
LayerCount: 2
Fore
SplineSet
54 0 m 1,0,-1
 52 16 l 1,1,-1
 30 16 l 1,2,-1
 28 0 l 1,3,-1
 5 0 l 1,4,-1
 24 123 l 1,5,-1
 59 123 l 1,6,-1
 77 0 l 1,7,-1
 54 0 l 1,0,-1
41 100 m 1,8,-1
 34 39 l 1,9,-1
 49 39 l 1,10,-1
 41 100 l 1,8,-1
EndSplineSet
EndChar

StartChar: B
Encoding: 66 66 24
Width: 80
VWidth: 139
GlyphClass: 2
Flags: W
LayerCount: 2
Fore
SplineSet
74 53 m 2,0,-1
 74 11 l 2,1,2
 74 7 74 7 70.5 3.5 c 128,-1,3
 67 0 67 0 62 0 c 2,4,-1
 5 0 l 1,5,-1
 5 123 l 1,6,-1
 62 123 l 2,7,8
 66 123 66 123 70 119.5 c 128,-1,9
 74 116 74 116 74 112 c 2,10,-1
 74 76 l 2,11,12
 74 72 74 72 70.5 68 c 128,-1,13
 67 64 67 64 62 64 c 1,14,15
 66 64 66 64 70 60.5 c 128,-1,16
 74 57 74 57 74 53 c 2,0,-1
28 76 m 1,17,-1
 49 76 l 2,18,19
 51 76 51 76 51 78 c 2,20,-1
 51 98 l 2,21,22
 51 100 51 100 49 100 c 2,23,-1
 28 100 l 1,24,-1
 28 76 l 1,17,-1
28 23 m 1,25,-1
 49 23 l 2,26,27
 51 23 51 23 51 25 c 2,28,-1
 51 50 l 2,29,30
 51 52 51 52 49 53 c 2,31,-1
 28 53 l 1,32,-1
 28 23 l 1,25,-1
EndSplineSet
EndChar

StartChar: C
Encoding: 67 67 25
Width: 67
VWidth: 139
GlyphClass: 2
Flags: W
LayerCount: 2
Fore
SplineSet
62 23 m 1,0,-1
 33 23 l 2,1,2
 31 23 31 23 30 25 c 2,3,-1
 30 98 l 2,4,5
 30 100 30 100 33 100 c 2,6,-1
 62 100 l 1,7,-1
 62 123 l 1,8,-1
 18 123 l 2,9,10
 14 123 14 123 11 119.5 c 128,-1,11
 8 116 8 116 8 112 c 2,12,-1
 8 11 l 2,13,14
 8 7 8 7 11 3.5 c 128,-1,15
 14 0 14 0 18 0 c 2,16,-1
 62 0 l 1,17,-1
 62 23 l 1,0,-1
EndSplineSet
EndChar

StartChar: D
Encoding: 68 68 26
Width: 81
VWidth: 139
GlyphClass: 2
Flags: W
LayerCount: 2
Fore
SplineSet
75 81 m 2,0,-1
 75 42 l 2,1,2
 76 14 76 14 70 8 c 0,3,4
 66 4 66 4 62 2 c 128,-1,5
 58 0 58 0 51 0 c 2,6,-1
 7 0 l 1,7,-1
 7 123 l 1,8,-1
 51 123 l 2,9,10
 59 123 59 123 62 122 c 0,11,12
 66 121 66 121 70 116 c 0,13,14
 76 109 76 109 75 81 c 2,0,-1
48 100 m 2,15,-1
 29 100 l 1,16,-1
 29 23 l 1,17,-1
 48 23 l 2,18,19
 50 23 50 23 51 24 c 128,-1,20
 52 25 52 25 52 27 c 2,21,-1
 52 96 l 2,22,23
 52 98 52 98 51 99 c 128,-1,24
 50 100 50 100 48 100 c 2,15,-1
EndSplineSet
EndChar

StartChar: E
Encoding: 69 69 27
Width: 64
VWidth: 139
GlyphClass: 2
Flags: W
LayerCount: 2
Fore
SplineSet
56 100 m 1,0,-1
 30 100 l 1,1,-1
 30 74 l 1,2,-1
 53 74 l 1,3,-1
 53 51 l 1,4,-1
 30 51 l 1,5,-1
 30 23 l 1,6,-1
 56 23 l 1,7,-1
 56 0 l 1,8,-1
 8 0 l 1,9,-1
 8 123 l 1,10,-1
 56 123 l 1,11,-1
 56 100 l 1,0,-1
EndSplineSet
EndChar

StartChar: F
Encoding: 70 70 28
Width: 61
VWidth: 139
GlyphClass: 2
Flags: W
LayerCount: 2
Fore
SplineSet
58 100 m 1,0,-1
 30 100 l 1,1,-1
 30 74 l 1,2,-1
 53 74 l 1,3,-1
 53 50 l 1,4,-1
 30 50 l 1,5,-1
 30 0 l 1,6,-1
 8 0 l 1,7,-1
 8 123 l 1,8,-1
 58 123 l 1,9,-1
 58 100 l 1,0,-1
EndSplineSet
EndChar

StartChar: G
Encoding: 71 71 29
Width: 81
VWidth: 139
GlyphClass: 2
Flags: W
LayerCount: 2
Fore
SplineSet
41 68 m 1,0,-1
 74 68 l 2,1,2
 76 68 76 68 76 66 c 2,3,-1
 76 11 l 2,4,5
 76 7 76 7 72 3.5 c 128,-1,6
 68 0 68 0 64 0 c 2,7,-1
 18 0 l 2,8,9
 14 0 14 0 11 3.5 c 128,-1,10
 8 7 8 7 8 11 c 2,11,-1
 8 112 l 2,12,13
 8 116 8 116 11 119.5 c 128,-1,14
 14 123 14 123 18 123 c 2,15,-1
 64 123 l 1,16,-1
 64 100 l 1,17,-1
 33 100 l 2,18,19
 31 100 31 100 30 98 c 2,20,-1
 30 25 l 2,21,22
 30 23 30 23 33 23 c 2,23,-1
 51 23 l 2,24,25
 53 23 53 23 53 25 c 2,26,-1
 53 43 l 2,27,28
 53 45 53 45 51 46 c 2,29,-1
 41 46 l 1,30,-1
 41 68 l 1,0,-1
EndSplineSet
EndChar

StartChar: H
Encoding: 72 72 30
Width: 83
VWidth: 139
GlyphClass: 2
Flags: W
LayerCount: 2
Fore
SplineSet
53 50 m 1,0,-1
 53 0 l 1,1,-1
 76 0 l 1,2,-1
 76 123 l 1,3,-1
 53 123 l 1,4,-1
 53 74 l 1,5,-1
 30 74 l 1,6,-1
 30 123 l 1,7,-1
 8 123 l 1,8,-1
 8 0 l 1,9,-1
 30 0 l 1,10,-1
 30 50 l 1,11,-1
 53 50 l 1,0,-1
EndSplineSet
EndChar

StartChar: I
Encoding: 73 73 31
Width: 41
VWidth: 139
GlyphClass: 2
Flags: W
LayerCount: 2
Fore
SplineSet
9 123 m 1,0,-1
 9 0 l 1,1,-1
 31 0 l 1,2,-1
 31 123 l 1,3,-1
 9 123 l 1,0,-1
EndSplineSet
EndChar

StartChar: J
Encoding: 74 74 32
Width: 61
VWidth: 139
GlyphClass: 2
Flags: W
LayerCount: 2
Fore
SplineSet
4 23 m 1,0,-1
 4 0 l 1,1,-1
 46 0 l 2,2,3
 50 0 50 0 53 3.5 c 128,-1,4
 56 7 56 7 56 11 c 2,5,-1
 56 123 l 1,6,-1
 34 123 l 1,7,-1
 34 25 l 2,8,9
 34 23 34 23 31 23 c 2,10,-1
 4 23 l 1,0,-1
EndSplineSet
EndChar

StartChar: K
Encoding: 75 75 33
Width: 83
VWidth: 139
GlyphClass: 2
Flags: W
LayerCount: 2
Fore
SplineSet
27 123 m 1,0,-1
 27 79 l 1,1,-1
 49 123 l 1,2,-1
 74 123 l 1,3,-1
 49 72 l 1,4,-1
 79 0 l 1,5,-1
 54 0 l 1,6,-1
 36 45 l 1,7,-1
 27 28 l 1,8,-1
 27 0 l 1,9,-1
 4 0 l 1,10,-1
 4 123 l 1,11,-1
 27 123 l 1,0,-1
EndSplineSet
EndChar

StartChar: L
Encoding: 76 76 34
Width: 60
VWidth: 139
GlyphClass: 2
Flags: W
LayerCount: 2
Fore
SplineSet
27 123 m 1,0,-1
 27 23 l 1,1,-1
 56 23 l 1,2,-1
 56 0 l 1,3,-1
 4 0 l 1,4,-1
 4 123 l 1,5,-1
 27 123 l 1,0,-1
EndSplineSet
EndChar

StartChar: M
Encoding: 77 77 35
Width: 109
VWidth: 139
GlyphClass: 2
Flags: W
LayerCount: 2
Fore
SplineSet
40 123 m 1,0,-1
 9 123 l 1,1,-1
 9 0 l 1,2,-1
 31 0 l 1,3,-1
 31 73 l 1,4,-1
 47 0 l 1,5,-1
 65 0 l 1,6,-1
 80 73 l 1,7,-1
 80 0 l 1,8,-1
 103 0 l 1,9,-1
 103 123 l 1,10,-1
 72 123 l 1,11,-1
 55 50 l 1,12,-1
 40 123 l 1,0,-1
EndSplineSet
EndChar

StartChar: N
Encoding: 78 78 36
Width: 83
VWidth: 139
GlyphClass: 2
Flags: W
LayerCount: 2
Fore
SplineSet
5 123 m 1,0,-1
 5 0 l 1,1,-1
 28 0 l 1,2,-1
 28 67 l 1,3,-1
 55 0 l 1,4,-1
 78 0 l 1,5,-1
 78 123 l 1,6,-1
 55 123 l 1,7,-1
 55 55 l 1,8,-1
 28 123 l 1,9,-1
 5 123 l 1,0,-1
EndSplineSet
EndChar

StartChar: O
Encoding: 79 79 37
Width: 80
VWidth: 139
GlyphClass: 2
Flags: W
LayerCount: 2
Fore
SplineSet
52 98 m 2,0,-1
 52 25 l 2,1,2
 52 23 52 23 50 23 c 2,3,-1
 31 23 l 2,4,5
 29 23 29 23 29 25 c 2,6,-1
 29 98 l 2,7,8
 29 100 29 100 31 100 c 2,9,-1
 50 100 l 2,10,11
 52 100 52 100 52 98 c 2,0,-1
7 112 m 2,12,-1
 7 11 l 2,13,14
 7 7 7 7 10 3.5 c 128,-1,15
 13 0 13 0 17 0 c 2,16,-1
 63 0 l 2,17,18
 67 0 67 0 71 3.5 c 128,-1,19
 75 7 75 7 75 11 c 2,20,-1
 75 112 l 2,21,22
 75 116 75 116 71.5 119.5 c 128,-1,23
 68 123 68 123 63 123 c 2,24,-1
 17 123 l 2,25,26
 13 123 13 123 10 119.5 c 128,-1,27
 7 116 7 116 7 112 c 2,12,-1
EndSplineSet
EndChar

StartChar: P
Encoding: 80 80 38
Width: 76
VWidth: 139
GlyphClass: 2
Flags: W
LayerCount: 2
Fore
SplineSet
73 112 m 2,0,-1
 73 60 l 2,1,2
 73 56 73 56 69.5 52.5 c 128,-1,3
 66 49 66 49 62 49 c 2,4,-1
 27 49 l 1,5,-1
 27 0 l 1,6,-1
 4 0 l 1,7,-1
 4 123 l 1,8,-1
 62 123 l 2,9,10
 66 123 66 123 69.5 119.5 c 128,-1,11
 73 116 73 116 73 112 c 2,0,-1
27 72 m 1,12,-1
 48 72 l 2,13,14
 50 72 50 72 50 74 c 2,15,-1
 50 98 l 2,16,17
 50 100 50 100 48 100 c 2,18,-1
 27 100 l 1,19,-1
 27 72 l 1,12,-1
EndSplineSet
EndChar

StartChar: Q
Encoding: 81 81 39
Width: 80
VWidth: 139
GlyphClass: 2
Flags: W
LayerCount: 2
Fore
SplineSet
50 -16 m 1,0,-1
 41 0 l 1,1,-1
 17 0 l 2,2,3
 13 0 13 0 10 3.5 c 128,-1,4
 7 7 7 7 7 11 c 2,5,-1
 7 112 l 2,6,7
 7 116 7 116 10 119.5 c 128,-1,8
 13 123 13 123 17 123 c 2,9,-1
 63 123 l 2,10,11
 67 123 67 123 71 119.5 c 128,-1,12
 75 116 75 116 75 112 c 2,13,-1
 75 11 l 2,14,15
 75 7 75 7 71.5 3.5 c 128,-1,16
 68 0 68 0 64 0 c 1,17,-1
 73 -16 l 1,18,-1
 50 -16 l 1,0,-1
52 25 m 2,19,-1
 52 98 l 2,20,21
 52 100 52 100 50 100 c 2,22,-1
 31 100 l 2,23,24
 29 100 29 100 29 98 c 2,25,-1
 29 25 l 2,26,27
 29 23 29 23 30 23 c 2,28,-1
 50 23 l 2,29,30
 52 23 52 23 52 25 c 2,19,-1
EndSplineSet
EndChar

StartChar: R
Encoding: 82 82 40
Width: 80
VWidth: 139
GlyphClass: 2
Flags: W
LayerCount: 2
Fore
SplineSet
75 112 m 2,0,-1
 75 63 l 2,1,2
 75 59 75 59 71 55 c 128,-1,3
 67 51 67 51 63 49 c 1,4,-1
 75 0 l 1,5,-1
 50 0 l 1,6,-1
 38 49 l 1,7,-1
 29 49 l 1,8,-1
 29 0 l 1,9,-1
 7 0 l 1,10,-1
 7 123 l 1,11,-1
 63 123 l 2,12,13
 67 123 67 123 71 119.5 c 128,-1,14
 75 116 75 116 75 112 c 2,0,-1
29 72 m 1,15,-1
 50 72 l 2,16,17
 52 72 52 72 52 74 c 2,18,-1
 52 98 l 2,19,20
 52 100 52 100 50 100 c 2,21,-1
 29 100 l 1,22,-1
 29 72 l 1,15,-1
EndSplineSet
EndChar

StartChar: S
Encoding: 83 83 41
Width: 72
VWidth: 139
GlyphClass: 2
Flags: W
LayerCount: 2
Fore
SplineSet
64 123 m 1,0,-1
 64 100 l 1,1,-1
 31 100 l 2,2,3
 29 100 29 100 29 98 c 2,4,-1
 29 78 l 2,5,6
 29 76 29 76 31 76 c 2,7,-1
 56 76 l 2,8,9
 60 76 60 76 63.5 72 c 128,-1,10
 67 68 67 68 67 64 c 2,11,-1
 67 11 l 2,12,13
 67 7 67 7 64 3.5 c 128,-1,14
 61 0 61 0 56 0 c 2,15,-1
 7 0 l 1,16,-1
 7 23 l 1,17,-1
 42 23 l 2,18,19
 44 23 44 23 45 25 c 2,20,-1
 45 50 l 2,21,22
 45 52 45 52 42 53 c 2,23,-1
 18 53 l 2,24,25
 14 53 14 53 10.5 56.5 c 128,-1,26
 7 60 7 60 7 64 c 2,27,-1
 7 112 l 2,28,29
 7 116 7 116 10 119.5 c 128,-1,30
 13 123 13 123 18 123 c 2,31,-1
 64 123 l 1,0,-1
EndSplineSet
EndChar

StartChar: T
Encoding: 84 84 42
Width: 64
VWidth: 139
GlyphClass: 2
Flags: W
LayerCount: 2
Fore
SplineSet
61 123 m 1,0,-1
 4 123 l 1,1,-1
 4 100 l 1,2,-1
 21 100 l 1,3,-1
 21 0 l 1,4,-1
 43 0 l 1,5,-1
 43 100 l 1,6,-1
 61 100 l 1,7,-1
 61 123 l 1,0,-1
EndSplineSet
EndChar

StartChar: U
Encoding: 85 85 43
Width: 83
VWidth: 139
GlyphClass: 2
Flags: W
LayerCount: 2
Fore
SplineSet
18 0 m 2,0,-1
 64 0 l 2,1,2
 68 0 68 0 72 3.5 c 128,-1,3
 76 7 76 7 76 11 c 2,4,-1
 76 123 l 1,5,-1
 53 123 l 1,6,-1
 53 25 l 2,7,8
 53 23 53 23 51 23 c 2,9,-1
 33 23 l 2,10,11
 31 23 31 23 30 25 c 2,12,-1
 30 123 l 1,13,-1
 8 123 l 1,14,-1
 8 11 l 2,15,16
 8 7 8 7 11 3.5 c 128,-1,17
 14 0 14 0 18 0 c 2,0,-1
EndSplineSet
EndChar

StartChar: V
Encoding: 86 86 44
Width: 81
VWidth: 139
GlyphClass: 2
Flags: W
LayerCount: 2
Fore
SplineSet
27 123 m 1,0,-1
 40 35 l 1,1,-1
 53 123 l 1,2,-1
 75 123 l 1,3,-1
 56 0 l 1,4,-1
 24 0 l 1,5,-1
 5 123 l 1,6,-1
 27 123 l 1,0,-1
EndSplineSet
EndChar

StartChar: W
Encoding: 87 87 45
Width: 114
VWidth: 139
GlyphClass: 2
Flags: W
LayerCount: 2
Fore
SplineSet
24 123 m 1,0,-1
 35 51 l 1,1,-1
 49 119 l 1,2,-1
 66 119 l 1,3,-1
 80 51 l 1,4,-1
 90 123 l 1,5,-1
 112 123 l 1,6,-1
 93 0 l 1,7,-1
 72 0 l 1,8,-1
 58 74 l 1,9,-1
 42 0 l 1,10,-1
 22 0 l 1,11,-1
 3 123 l 1,12,-1
 24 123 l 1,0,-1
EndSplineSet
EndChar

StartChar: X
Encoding: 88 88 46
Width: 77
VWidth: 139
GlyphClass: 2
Flags: W
LayerCount: 2
Fore
SplineSet
76 0 m 1,0,-1
 51 65 l 1,1,-1
 73 123 l 1,2,-1
 49 123 l 1,3,-1
 39 98 l 1,4,-1
 29 123 l 1,5,-1
 4 123 l 1,6,-1
 27 65 l 1,7,-1
 2 0 l 1,8,-1
 27 0 l 1,9,-1
 39 33 l 1,10,-1
 51 0 l 1,11,-1
 76 0 l 1,0,-1
EndSplineSet
EndChar

StartChar: Y
Encoding: 89 89 47
Width: 70
VWidth: 139
GlyphClass: 2
Flags: W
LayerCount: 2
Fore
SplineSet
47 66 m 1,0,-1
 47 66 l 1,1,-1
 68 123 l 1,2,-1
 46 123 l 1,3,-1
 36 97 l 1,4,-1
 25 123 l 1,5,-1
 2 123 l 1,6,-1
 24 66 l 1,7,-1
 24 0 l 1,8,-1
 47 0 l 1,9,-1
 47 66 l 1,0,-1
EndSplineSet
EndChar

StartChar: Z
Encoding: 90 90 48
Width: 78
VWidth: 139
GlyphClass: 2
Flags: W
LayerCount: 2
Fore
SplineSet
9 123 m 1,0,-1
 9 100 l 1,1,-1
 41 100 l 1,2,-1
 3 0 l 1,3,-1
 73 0 l 1,4,-1
 73 23 l 1,5,-1
 36 23 l 1,6,-1
 74 123 l 1,7,-1
 9 123 l 1,0,-1
EndSplineSet
EndChar

StartChar: bracketleft
Encoding: 91 91 49
Width: 77
VWidth: 139
GlyphClass: 2
Flags: W
LayerCount: 2
Fore
SplineSet
54 0 m 1,0,-1
 31 0 l 2,1,2
 27 0 27 0 24 3.5 c 128,-1,3
 21 7 21 7 21 11 c 2,4,-1
 21 112 l 2,5,6
 21 116 21 116 24 119.5 c 128,-1,7
 27 123 27 123 31 123 c 2,8,-1
 54 123 l 1,9,-1
 54 100 l 1,10,-1
 46 100 l 2,11,12
 44 100 44 100 43 98 c 2,13,-1
 43 25 l 2,14,15
 43 23 43 23 46 23 c 2,16,-1
 54 23 l 1,17,-1
 54 0 l 1,0,-1
54 100 m 1024,18,-1
54 23 m 1024,19,-1
54 0 m 1024,20,-1
EndSplineSet
EndChar

StartChar: backslash
Encoding: 92 92 50
Width: 77
VWidth: 139
GlyphClass: 2
Flags: W
LayerCount: 2
Fore
SplineSet
31 123 m 1,0,-1
 71 0 l 1,1,-1
 48 0 l 1,2,-1
 9 123 l 1,3,-1
 31 123 l 1,0,-1
EndSplineSet
EndChar

StartChar: bracketright
Encoding: 93 93 51
Width: 77
VWidth: 139
GlyphClass: 2
Flags: W
LayerCount: 2
Fore
SplineSet
21 0 m 1,0,-1
 43 0 l 2,1,2
 47 0 47 0 50.5 3.5 c 128,-1,3
 54 7 54 7 54 11 c 2,4,-1
 54 112 l 2,5,6
 54 116 54 116 51 119.5 c 128,-1,7
 48 123 48 123 43 123 c 2,8,-1
 21 123 l 1,9,-1
 21 100 l 1,10,-1
 29 100 l 2,11,12
 31 100 31 100 31 98 c 2,13,-1
 31 25 l 2,14,15
 31 23 31 23 29 23 c 2,16,-1
 21 23 l 1,17,-1
 21 0 l 1,0,-1
21 100 m 1024,18,-1
21 23 m 1024,19,-1
21 0 m 1024,20,-1
EndSplineSet
EndChar

StartChar: a
Encoding: 97 97 52
Width: 79
VWidth: 139
GlyphClass: 2
Flags: W
LayerCount: 2
Fore
SplineSet
54 0 m 1,0,-1
 52 16 l 1,1,-1
 30 16 l 1,2,-1
 28 0 l 1,3,-1
 5 0 l 1,4,-1
 24 123 l 1,5,-1
 59 123 l 1,6,-1
 77 0 l 1,7,-1
 54 0 l 1,0,-1
41 100 m 1,8,-1
 34 39 l 1,9,-1
 49 39 l 1,10,-1
 41 100 l 1,8,-1
EndSplineSet
EndChar

StartChar: b
Encoding: 98 98 53
Width: 80
VWidth: 139
GlyphClass: 2
Flags: W
LayerCount: 2
Fore
SplineSet
74 53 m 2,0,-1
 74 11 l 2,1,2
 74 7 74 7 70.5 3.5 c 128,-1,3
 67 0 67 0 62 0 c 2,4,-1
 5 0 l 1,5,-1
 5 123 l 1,6,-1
 62 123 l 2,7,8
 66 123 66 123 70 119.5 c 128,-1,9
 74 116 74 116 74 112 c 2,10,-1
 74 76 l 2,11,12
 74 72 74 72 70.5 68 c 128,-1,13
 67 64 67 64 62 64 c 1,14,15
 66 64 66 64 70 60.5 c 128,-1,16
 74 57 74 57 74 53 c 2,0,-1
28 76 m 1,17,-1
 49 76 l 2,18,19
 51 76 51 76 51 78 c 2,20,-1
 51 98 l 2,21,22
 51 100 51 100 49 100 c 2,23,-1
 28 100 l 1,24,-1
 28 76 l 1,17,-1
28 23 m 1,25,-1
 49 23 l 2,26,27
 51 23 51 23 51 25 c 2,28,-1
 51 50 l 2,29,30
 51 52 51 52 49 53 c 2,31,-1
 28 53 l 1,32,-1
 28 23 l 1,25,-1
EndSplineSet
EndChar

StartChar: c
Encoding: 99 99 54
Width: 67
VWidth: 139
GlyphClass: 2
Flags: W
LayerCount: 2
Fore
SplineSet
62 23 m 1,0,-1
 33 23 l 2,1,2
 31 23 31 23 30 25 c 2,3,-1
 30 98 l 2,4,5
 30 100 30 100 33 100 c 2,6,-1
 62 100 l 1,7,-1
 62 123 l 1,8,-1
 18 123 l 2,9,10
 14 123 14 123 11 119.5 c 128,-1,11
 8 116 8 116 8 112 c 2,12,-1
 8 11 l 2,13,14
 8 7 8 7 11 3.5 c 128,-1,15
 14 0 14 0 18 0 c 2,16,-1
 62 0 l 1,17,-1
 62 23 l 1,0,-1
EndSplineSet
EndChar

StartChar: d
Encoding: 100 100 55
Width: 81
VWidth: 139
GlyphClass: 2
Flags: W
LayerCount: 2
Fore
SplineSet
75 80 m 2,0,-1
 75 42 l 2,1,2
 76 14 76 14 70 8 c 0,3,4
 66 4 66 4 62 2 c 128,-1,5
 58 0 58 0 51 0 c 2,6,-1
 7 0 l 1,7,-1
 7 123 l 1,8,-1
 51 123 l 2,9,10
 59 123 59 123 62 121 c 0,11,12
 66 119 66 119 70 115 c 0,13,14
 76 108 76 108 75 80 c 2,0,-1
48 100 m 2,15,-1
 29 100 l 1,16,-1
 29 23 l 1,17,-1
 48 23 l 2,18,19
 50 23 50 23 51 24 c 128,-1,20
 52 25 52 25 52 27 c 2,21,-1
 52 96 l 2,22,23
 52 98 52 98 51 99 c 128,-1,24
 50 100 50 100 48 100 c 2,15,-1
EndSplineSet
EndChar

StartChar: e
Encoding: 101 101 56
Width: 64
VWidth: 139
GlyphClass: 2
Flags: W
LayerCount: 2
Fore
SplineSet
56 100 m 1,0,-1
 30 100 l 1,1,-1
 30 74 l 1,2,-1
 53 74 l 1,3,-1
 53 51 l 1,4,-1
 30 51 l 1,5,-1
 30 23 l 1,6,-1
 56 23 l 1,7,-1
 56 0 l 1,8,-1
 8 0 l 1,9,-1
 8 123 l 1,10,-1
 56 123 l 1,11,-1
 56 100 l 1,0,-1
EndSplineSet
EndChar

StartChar: f
Encoding: 102 102 57
Width: 61
VWidth: 139
GlyphClass: 2
Flags: W
LayerCount: 2
Fore
SplineSet
58 100 m 1,0,-1
 30 100 l 1,1,-1
 30 74 l 1,2,-1
 53 74 l 1,3,-1
 53 50 l 1,4,-1
 30 50 l 1,5,-1
 30 0 l 1,6,-1
 8 0 l 1,7,-1
 8 123 l 1,8,-1
 58 123 l 1,9,-1
 58 100 l 1,0,-1
EndSplineSet
EndChar

StartChar: g
Encoding: 103 103 58
Width: 81
VWidth: 139
GlyphClass: 2
Flags: W
LayerCount: 2
Fore
SplineSet
41 68 m 1,0,-1
 74 68 l 2,1,2
 76 68 76 68 76 66 c 2,3,-1
 76 11 l 2,4,5
 76 7 76 7 72 3.5 c 128,-1,6
 68 0 68 0 64 0 c 2,7,-1
 18 0 l 2,8,9
 14 0 14 0 11 3.5 c 128,-1,10
 8 7 8 7 8 11 c 2,11,-1
 8 112 l 2,12,13
 8 116 8 116 11 119.5 c 128,-1,14
 14 123 14 123 18 123 c 2,15,-1
 64 123 l 1,16,-1
 64 100 l 1,17,-1
 33 100 l 2,18,19
 31 100 31 100 30 98 c 2,20,-1
 30 25 l 2,21,22
 30 23 30 23 33 23 c 2,23,-1
 51 23 l 2,24,25
 53 23 53 23 53 25 c 2,26,-1
 53 43 l 2,27,28
 53 45 53 45 51 46 c 2,29,-1
 41 46 l 1,30,-1
 41 68 l 1,0,-1
EndSplineSet
EndChar

StartChar: h
Encoding: 104 104 59
Width: 83
VWidth: 139
GlyphClass: 2
Flags: W
LayerCount: 2
Fore
SplineSet
53 50 m 1,0,-1
 53 0 l 1,1,-1
 76 0 l 1,2,-1
 76 123 l 1,3,-1
 53 123 l 1,4,-1
 53 74 l 1,5,-1
 30 74 l 1,6,-1
 30 123 l 1,7,-1
 8 123 l 1,8,-1
 8 0 l 1,9,-1
 30 0 l 1,10,-1
 30 50 l 1,11,-1
 53 50 l 1,0,-1
EndSplineSet
EndChar

StartChar: i
Encoding: 105 105 60
Width: 41
VWidth: 139
GlyphClass: 2
Flags: W
LayerCount: 2
Fore
SplineSet
9 123 m 1,0,-1
 9 0 l 1,1,-1
 31 0 l 1,2,-1
 31 123 l 1,3,-1
 9 123 l 1,0,-1
EndSplineSet
EndChar

StartChar: j
Encoding: 106 106 61
Width: 61
VWidth: 139
GlyphClass: 2
Flags: W
LayerCount: 2
Fore
SplineSet
4 23 m 1,0,-1
 4 0 l 1,1,-1
 46 0 l 2,2,3
 50 0 50 0 53 3.5 c 128,-1,4
 56 7 56 7 56 11 c 2,5,-1
 56 123 l 1,6,-1
 34 123 l 1,7,-1
 34 25 l 2,8,9
 34 23 34 23 31 23 c 2,10,-1
 4 23 l 1,0,-1
EndSplineSet
EndChar

StartChar: k
Encoding: 107 107 62
Width: 83
VWidth: 139
GlyphClass: 2
Flags: W
LayerCount: 2
Fore
SplineSet
27 123 m 1,0,-1
 27 79 l 1,1,-1
 49 123 l 1,2,-1
 74 123 l 1,3,-1
 49 72 l 1,4,-1
 79 0 l 1,5,-1
 54 0 l 1,6,-1
 36 45 l 1,7,-1
 27 28 l 1,8,-1
 27 0 l 1,9,-1
 4 0 l 1,10,-1
 4 123 l 1,11,-1
 27 123 l 1,0,-1
EndSplineSet
EndChar

StartChar: l
Encoding: 108 108 63
Width: 60
VWidth: 139
GlyphClass: 2
Flags: W
LayerCount: 2
Fore
SplineSet
27 123 m 1,0,-1
 27 23 l 1,1,-1
 56 23 l 1,2,-1
 56 0 l 1,3,-1
 4 0 l 1,4,-1
 4 123 l 1,5,-1
 27 123 l 1,0,-1
EndSplineSet
EndChar

StartChar: m
Encoding: 109 109 64
Width: 109
VWidth: 139
GlyphClass: 2
Flags: W
LayerCount: 2
Fore
SplineSet
40 123 m 1,0,-1
 9 123 l 1,1,-1
 9 0 l 1,2,-1
 31 0 l 1,3,-1
 31 73 l 1,4,-1
 47 0 l 1,5,-1
 65 0 l 1,6,-1
 80 73 l 1,7,-1
 80 0 l 1,8,-1
 103 0 l 1,9,-1
 103 123 l 1,10,-1
 72 123 l 1,11,-1
 55 50 l 1,12,-1
 40 123 l 1,0,-1
EndSplineSet
EndChar

StartChar: n
Encoding: 110 110 65
Width: 83
VWidth: 139
GlyphClass: 2
Flags: W
LayerCount: 2
Fore
SplineSet
5 123 m 1,0,-1
 5 0 l 1,1,-1
 28 0 l 1,2,-1
 28 67 l 1,3,-1
 55 0 l 1,4,-1
 78 0 l 1,5,-1
 78 123 l 1,6,-1
 55 123 l 1,7,-1
 55 55 l 1,8,-1
 28 123 l 1,9,-1
 5 123 l 1,0,-1
EndSplineSet
EndChar

StartChar: o
Encoding: 111 111 66
Width: 80
VWidth: 139
GlyphClass: 2
Flags: W
LayerCount: 2
Fore
SplineSet
52 98 m 2,0,-1
 52 25 l 2,1,2
 52 23 52 23 50 23 c 2,3,-1
 31 23 l 2,4,5
 29 23 29 23 29 25 c 2,6,-1
 29 98 l 2,7,8
 29 100 29 100 31 100 c 2,9,-1
 50 100 l 2,10,11
 52 100 52 100 52 98 c 2,0,-1
7 112 m 2,12,-1
 7 11 l 2,13,14
 7 7 7 7 10 3.5 c 128,-1,15
 13 0 13 0 17 0 c 2,16,-1
 63 0 l 2,17,18
 67 0 67 0 71 3.5 c 128,-1,19
 75 7 75 7 75 11 c 2,20,-1
 75 112 l 2,21,22
 75 116 75 116 71.5 119.5 c 128,-1,23
 68 123 68 123 63 123 c 2,24,-1
 17 123 l 2,25,26
 13 123 13 123 10 119.5 c 128,-1,27
 7 116 7 116 7 112 c 2,12,-1
EndSplineSet
EndChar

StartChar: p
Encoding: 112 112 67
Width: 76
VWidth: 139
GlyphClass: 2
Flags: W
LayerCount: 2
Fore
SplineSet
73 112 m 2,0,-1
 73 60 l 2,1,2
 73 56 73 56 69.5 52.5 c 128,-1,3
 66 49 66 49 62 49 c 2,4,-1
 27 49 l 1,5,-1
 27 0 l 1,6,-1
 4 0 l 1,7,-1
 4 123 l 1,8,-1
 62 123 l 2,9,10
 66 123 66 123 69.5 119.5 c 128,-1,11
 73 116 73 116 73 112 c 2,0,-1
27 72 m 1,12,-1
 48 72 l 2,13,14
 50 72 50 72 50 74 c 2,15,-1
 50 98 l 2,16,17
 50 100 50 100 48 100 c 2,18,-1
 27 100 l 1,19,-1
 27 72 l 1,12,-1
EndSplineSet
EndChar

StartChar: q
Encoding: 113 113 68
Width: 80
VWidth: 139
GlyphClass: 2
Flags: W
LayerCount: 2
Fore
SplineSet
50 -16 m 1,0,-1
 41 0 l 1,1,-1
 17 0 l 2,2,3
 13 0 13 0 10 3.5 c 128,-1,4
 7 7 7 7 7 11 c 2,5,-1
 7 112 l 2,6,7
 7 116 7 116 10 119.5 c 128,-1,8
 13 123 13 123 17 123 c 2,9,-1
 63 123 l 2,10,11
 67 123 67 123 71 119.5 c 128,-1,12
 75 116 75 116 75 112 c 2,13,-1
 75 11 l 2,14,15
 75 7 75 7 71.5 3.5 c 128,-1,16
 68 0 68 0 64 0 c 1,17,-1
 73 -16 l 1,18,-1
 50 -16 l 1,0,-1
52 25 m 2,19,-1
 52 98 l 2,20,21
 52 100 52 100 50 100 c 2,22,-1
 31 100 l 2,23,24
 29 100 29 100 29 98 c 2,25,-1
 29 25 l 2,26,27
 29 23 29 23 30 23 c 2,28,-1
 50 23 l 2,29,30
 52 23 52 23 52 25 c 2,19,-1
EndSplineSet
EndChar

StartChar: r
Encoding: 114 114 69
Width: 80
VWidth: 139
GlyphClass: 2
Flags: W
LayerCount: 2
Fore
SplineSet
75 112 m 2,0,-1
 75 63 l 2,1,2
 75 59 75 59 71 55 c 128,-1,3
 67 51 67 51 63 49 c 1,4,-1
 75 0 l 1,5,-1
 50 0 l 1,6,-1
 38 49 l 1,7,-1
 29 49 l 1,8,-1
 29 0 l 1,9,-1
 7 0 l 1,10,-1
 7 123 l 1,11,-1
 63 123 l 2,12,13
 67 123 67 123 71 119.5 c 128,-1,14
 75 116 75 116 75 112 c 2,0,-1
29 72 m 1,15,-1
 50 72 l 2,16,17
 52 72 52 72 52 74 c 2,18,-1
 52 98 l 2,19,20
 52 100 52 100 50 100 c 2,21,-1
 29 100 l 1,22,-1
 29 72 l 1,15,-1
EndSplineSet
EndChar

StartChar: s
Encoding: 115 115 70
Width: 72
VWidth: 139
GlyphClass: 2
Flags: W
LayerCount: 2
Fore
SplineSet
64 123 m 1,0,-1
 64 100 l 1,1,-1
 31 100 l 2,2,3
 29 100 29 100 29 98 c 2,4,-1
 29 78 l 2,5,6
 29 76 29 76 31 76 c 2,7,-1
 56 76 l 2,8,9
 60 76 60 76 63.5 72 c 128,-1,10
 67 68 67 68 67 64 c 2,11,-1
 67 11 l 2,12,13
 67 7 67 7 64 3.5 c 128,-1,14
 61 0 61 0 56 0 c 2,15,-1
 7 0 l 1,16,-1
 7 23 l 1,17,-1
 42 23 l 2,18,19
 44 23 44 23 45 25 c 2,20,-1
 45 50 l 2,21,22
 45 52 45 52 42 53 c 2,23,-1
 18 53 l 2,24,25
 14 53 14 53 10.5 56.5 c 128,-1,26
 7 60 7 60 7 64 c 2,27,-1
 7 112 l 2,28,29
 7 116 7 116 10 119.5 c 128,-1,30
 13 123 13 123 18 123 c 2,31,-1
 64 123 l 1,0,-1
EndSplineSet
EndChar

StartChar: t
Encoding: 116 116 71
Width: 64
VWidth: 139
GlyphClass: 2
Flags: W
LayerCount: 2
Fore
SplineSet
61 123 m 1,0,-1
 4 123 l 1,1,-1
 4 100 l 1,2,-1
 21 100 l 1,3,-1
 21 0 l 1,4,-1
 43 0 l 1,5,-1
 43 100 l 1,6,-1
 61 100 l 1,7,-1
 61 123 l 1,0,-1
EndSplineSet
EndChar

StartChar: u
Encoding: 117 117 72
Width: 83
VWidth: 139
GlyphClass: 2
Flags: W
LayerCount: 2
Fore
SplineSet
18 0 m 2,0,-1
 64 0 l 2,1,2
 68 0 68 0 72 3.5 c 128,-1,3
 76 7 76 7 76 11 c 2,4,-1
 76 123 l 1,5,-1
 53 123 l 1,6,-1
 53 25 l 2,7,8
 53 23 53 23 51 23 c 2,9,-1
 33 23 l 2,10,11
 31 23 31 23 30 25 c 2,12,-1
 30 123 l 1,13,-1
 8 123 l 1,14,-1
 8 11 l 2,15,16
 8 7 8 7 11 3.5 c 128,-1,17
 14 0 14 0 18 0 c 2,0,-1
EndSplineSet
EndChar

StartChar: v
Encoding: 118 118 73
Width: 81
VWidth: 139
GlyphClass: 2
Flags: W
LayerCount: 2
Fore
SplineSet
27 123 m 1,0,-1
 40 35 l 1,1,-1
 53 123 l 1,2,-1
 75 123 l 1,3,-1
 56 0 l 1,4,-1
 24 0 l 1,5,-1
 5 123 l 1,6,-1
 27 123 l 1,0,-1
EndSplineSet
EndChar

StartChar: w
Encoding: 119 119 74
Width: 114
VWidth: 139
GlyphClass: 2
Flags: W
LayerCount: 2
Fore
SplineSet
24 123 m 1,0,-1
 35 51 l 1,1,-1
 49 119 l 1,2,-1
 66 119 l 1,3,-1
 80 51 l 1,4,-1
 90 123 l 1,5,-1
 112 123 l 1,6,-1
 93 0 l 1,7,-1
 72 0 l 1,8,-1
 58 74 l 1,9,-1
 42 0 l 1,10,-1
 22 0 l 1,11,-1
 3 123 l 1,12,-1
 24 123 l 1,0,-1
EndSplineSet
EndChar

StartChar: x
Encoding: 120 120 75
Width: 77
VWidth: 139
GlyphClass: 2
Flags: W
LayerCount: 2
Fore
SplineSet
76 0 m 1,0,-1
 51 65 l 1,1,-1
 73 123 l 1,2,-1
 49 123 l 1,3,-1
 39 98 l 1,4,-1
 29 123 l 1,5,-1
 4 123 l 1,6,-1
 27 65 l 1,7,-1
 2 0 l 1,8,-1
 27 0 l 1,9,-1
 39 33 l 1,10,-1
 51 0 l 1,11,-1
 76 0 l 1,0,-1
EndSplineSet
EndChar

StartChar: y
Encoding: 121 121 76
Width: 70
VWidth: 139
GlyphClass: 2
Flags: W
LayerCount: 2
Fore
SplineSet
47 66 m 1,0,-1
 47 66 l 1,1,-1
 68 123 l 1,2,-1
 46 123 l 1,3,-1
 36 97 l 1,4,-1
 25 123 l 1,5,-1
 2 123 l 1,6,-1
 24 66 l 1,7,-1
 24 0 l 1,8,-1
 47 0 l 1,9,-1
 47 66 l 1,0,-1
EndSplineSet
EndChar

StartChar: z
Encoding: 122 122 77
Width: 78
VWidth: 139
GlyphClass: 2
Flags: W
LayerCount: 2
Fore
SplineSet
9 123 m 1,0,-1
 9 100 l 1,1,-1
 41 100 l 1,2,-1
 3 0 l 1,3,-1
 73 0 l 1,4,-1
 73 23 l 1,5,-1
 36 23 l 1,6,-1
 74 123 l 1,7,-1
 9 123 l 1,0,-1
EndSplineSet
EndChar

StartChar: parenleft
Encoding: 40 40 78
Width: 77
VWidth: 139
Flags: W
LayerCount: 2
Fore
SplineSet
54 0 m 5,0,-1
 51 0 l 6,1,2
 22 0 22 0 22 61 c 4,3,4
 22 61 l 6,5,-1
 22 61 l 6,6,7
 22 61.5 l 4,8,9
 22 123 22 123 52 123 c 6,10,-1
 54 123 l 5,11,-1
 54 100 l 5,12,-1
 54 100 l 6,13,14
 43 100 43 100 43 63 c 6,15,-1
 43 60 l 6,16,17
 43 23 43 23 54 23 c 6,18,-1
 54 23 l 5,19,-1
 54 0 l 5,0,-1
54 100 m 1028,20,-1
54 23 m 1028,21,-1
54 0 m 1028,22,-1
EndSplineSet
EndChar

StartChar: parenright
Encoding: 41 41 79
Width: 77
VWidth: 139
Flags: W
LayerCount: 2
Fore
SplineSet
22 0 m 1,0,-1
 25 0 l 2,1,2
 54 0 54 0 54 61 c 0,3,4
 54 61 l 2,5,-1
 54 61 l 2,6,7
 54 61.5 l 0,8,9
 54 123 54 123 24 123 c 2,10,-1
 22 123 l 1,11,-1
 22 100 l 1,12,-1
 22 100 l 2,13,14
 33 100 33 100 33 63 c 2,15,-1
 33 60 l 2,16,17
 33 23 33 23 22 23 c 2,18,-1
 22 23 l 1,19,-1
 22 0 l 1,0,-1
22 100 m 1024,20,-1
22 23 m 1024,21,-1
22 0 m 1024,22,-1
EndSplineSet
EndChar

StartChar: quotedbl
Encoding: 34 34 80
Width: 77
VWidth: 139
Flags: W
LayerCount: 2
Fore
SplineSet
66 121 m 6,0,1
 66 84 l 4,2,3
 65 82 65 82 64 82 c 6,4,-1
 45 82 l 6,5,6
 43 82 43 82 43 84 c 6,7,-1
 43 121 l 6,8,9
 43 123 43 123 46 123 c 6,10,-1
 64 123 l 6,11,12
 66 123 66 123 66 121 c 6,0,1
36 121 m 6,13,-1
 36 84 l 4,14,15
 35 82 35 82 34 82 c 6,16,-1
 15 82 l 6,17,18
 13 82 13 82 13 84 c 6,19,-1
 13 121 l 6,20,21
 13 123 13 123 16 123 c 6,22,-1
 34 123 l 6,23,24
 36 123 36 123 36 121 c 6,13,-1
EndSplineSet
EndChar

StartChar: quotesingle
Encoding: 39 39 81
Width: 77
VWidth: 139
Flags: W
LayerCount: 2
Fore
SplineSet
54 121 m 6,0,1
 47 84 l 4,2,3
 46 82 46 82 45 82 c 6,4,-1
 26 82 l 6,5,6
 23 82 23 82 24 84 c 6,7,-1
 31 121 l 6,8,9
 32 123 32 123 34 123 c 6,10,-1
 52 123 l 6,11,12
 55 123 55 123 54 121 c 6,0,1
EndSplineSet
EndChar

StartChar: question
Encoding: 63 63 82
Width: 77
VWidth: 139
Flags: W
LayerCount: 2
Fore
SplineSet
44 21 m 6,0,1
 44 2 l 0,2,3
 44 0 44 0 42 0 c 2,4,-1
 23 0 l 2,5,6
 21 0 21 0 21 2 c 2,7,-1
 21 21 l 6,8,9
 21 23 21 23 23 23 c 6,10,-1
 42 23 l 6,11,12
 44 23 44 23 44 21 c 6,0,1
21 33 m 2,13,-1
 21 59 l 2,14,15
 21 63 21 63 24.5 67 c 128,-1,16
 28 71 28 71 32 71 c 2,17,-1
 42 71 l 2,18,19
 45 71 45 71 45 73 c 2,20,-1
 45 98 l 2,21,22
 45 100 45 100 42 100 c 2,23,-1
 7 100 l 1,24,-1
 7 123 l 1,25,-1
 56 123 l 2,26,27
 61 123 61 123 64 119.5 c 128,-1,28
 67 116 67 116 67 112 c 2,29,-1
 67 59 l 2,30,31
 67 54 67 54 63.5 51 c 128,-1,32
 60 48 60 48 56 48 c 2,33,-1
 46 48 l 2,34,35
 44 48 44 48 44 46 c 2,36,-1
 44 42 l 2,37,-1
 44 32.83984375 l 0,38,-1
 21 33 l 2,13,-1
EndSplineSet
EndChar
